<?xml version="1.0" encoding="UTF-8" standalone="no"?>
<!-- Created with Inkscape (http://www.inkscape.org/) -->

<svg
   width="1920"
   height="1080"
   viewBox="0 0 508 285.75"
   version="1.1"
   id="svg1"
   inkscape:version="1.4 (86a8ad7, 2024-10-11)"
   sodipodi:docname="ExampleLevelCut #1.svg"
   inkscape:export-filename="ExampleLevelCut #1.png"
   inkscape:export-xdpi="96"
   inkscape:export-ydpi="96"
   xmlns:inkscape="http://www.inkscape.org/namespaces/inkscape"
   xmlns:sodipodi="http://sodipodi.sourceforge.net/DTD/sodipodi-0.dtd"
   xmlns="http://www.w3.org/2000/svg"
   xmlns:svg="http://www.w3.org/2000/svg">
  <sodipodi:namedview
     id="namedview1"
     pagecolor="#ffffff"
     bordercolor="#111111"
     borderopacity="1"
     inkscape:showpageshadow="0"
     inkscape:pageopacity="0"
     inkscape:pagecheckerboard="1"
     inkscape:deskcolor="#d1d1d1"
     inkscape:document-units="px"
     showguides="true"
     showgrid="true"
     inkscape:zoom="0.36302259"
     inkscape:cx="665.24787"
     inkscape:cy="420.08406"
     inkscape:window-width="1920"
     inkscape:window-height="1017"
     inkscape:window-x="1912"
     inkscape:window-y="-8"
     inkscape:window-maximized="1"
     inkscape:current-layer="layer1"
     inkscape:export-bgcolor="#ffffffff" />
  <defs
     id="defs1">
    <inkscape:path-effect
       effect="construct_grid"
       id="path-effect31"
       is_visible="true"
       lpeversion="1"
       nr_x="5"
       nr_y="5" />
    <linearGradient
       id="swatch12"
       inkscape:swatch="solid">
      <stop
         style="stop-color:#000000;stop-opacity:1;"
         offset="0"
         id="stop12" />
    </linearGradient>
    <linearGradient
       id="swatch2">
      <stop
         style="stop-color:#000000;stop-opacity:1;"
         offset="0"
         id="stop2" />
    </linearGradient>
  </defs>
  <g
     inkscape:label="Layer 1"
     inkscape:groupmode="layer"
     id="layer1">
    <path
       id="rect1"
       style="display:inline;fill:#000000;stroke-width:0.545005"
       d="m 344.8401,292.78687 -11.77535,-23.16043 0.0646,23.16043 z" />
    <path
       id="path63"
       style="display:inline;fill:#000000;stroke-width:0.545005"
       d="m 360.00295,162.95327 -20.95298,-36.88685 0.0893,31.81602 z" />
    <path
       id="path62"
       style="display:inline;fill:#000000;stroke-width:0.545005"
       d="m 461.95806,236.82232 5.29792,-49.30187 -20.14033,-4.89393 z" />
    <path
       id="path61"
       style="display:inline;fill:#000000;stroke-width:0.545005"
       d="m 480.01624,267.35469 7.63231,27.86857 h 35.53612 v -20.59515 z" />
    <path
       id="path60"
       style="display:inline;fill:#000000;stroke-width:0.545005"
       d="m 474.08371,265.59861 43.16843,7.27341 v -72.76196 l -45.31937,-11.01408 -5.29793,49.30187 z" />
    <path
       id="path59"
       style="display:inline;fill:#000000;stroke-width:0.545005"
       d="m 467.99611,270.04536 -3.17877,29.58465 h 20.99806 l -7.6323,-27.86857 z" />
    <path
       id="path58"
       style="display:inline;fill:#000000;stroke-width:0.545005"
       d="m 459.73095,263.40972 10.18699,1.71608 -7.44888,-27.20075 z" />
    <path
       id="path57"
       style="display:inline;fill:#000000;stroke-width:0.545005"
       d="m 415.92596,261.99238 21.49814,37.84772 h 24.3664 l 3.17877,-29.58467 z" />
    <path
       id="path56"
       style="display:inline;fill:#000000;stroke-width:0.545005"
       d="m 409.5159,256.83525 49.04331,8.26306 2.73811,-25.48468 -14.84241,-54.1958 -89.91835,-21.85347 z" />
    <path
       id="path55"
       style="display:inline;fill:#000000;stroke-width:0.545005"
       d="m 338.38549,247.19941 0.0757,27.08906 11.77536,23.16042 h 83.25032 l -21.49814,-37.84771 z" />
    <path
       id="path54"
       style="display:inline;fill:#000000;stroke-width:0.545005"
       d="m 336.52371,246.09356 73.60337,12.40178 -52.97934,-93.27089 -20.86381,-5.07085 z" />
    <path
       id="path53"
       style="display:inline;fill:#000000;stroke-width:0.545005"
       d="m 320.1623,239.59074 15.05556,29.61342 -0.0758,-27.08907 z" />
    <path
       id="path52"
       style="display:inline;fill:#000000;stroke-width:0.545005"
       d="m 269.84496,228.81961 60.78691,60.51721 h 0.28895 l -0.0646,-23.16043 -15.05557,-29.61342 z" />
    <path
       id="path51"
       style="display:inline;fill:#000000;stroke-width:0.545005"
       d="m 207.06652,223.69539 67.56351,11.38452 -44.31001,-44.11497 z" />
    <path
       id="path50"
       style="display:inline;fill:#000000;stroke-width:0.545005"
       d="m 193.70104,254.37352 34.44375,47.37572 h 111.33042 l -60.7869,-60.5172 -67.56352,-11.38452 z" />
    <path
       id="path49"
       style="display:inline;fill:#000000;stroke-width:0.545005"
       d="m 189.8843,244.09699 17.42374,-24.52601 -40.17617,-6.76922 z" />
    <path
       id="path48"
       style="display:inline;fill:#000000;stroke-width:0.545005"
       d="m 152.25299,302.16713 h 68.1005 l -34.44375,-47.37572 z" />
    <path
       id="path47"
       style="display:inline;fill:#000000;stroke-width:0.545005"
       d="m 63.957809,232.97303 -7.751164,65.05398 h 70.157145 z" />
    <path
       id="path46"
       style="display:inline;fill:#000000;stroke-width:0.545005"
       d="m 70.792817,110.35579 -83.744274,38.84067 35.849718,37.37228 38.048805,6.41096 z" />
    <path
       id="path45"
       style="display:inline;fill:#000000;stroke-width:0.545005"
       d="m 74.018163,90.704134 -1.860933,15.616096 9.881621,-4.58322 z" />
    <path
       id="path43"
       style="display:inline;fill:#000000;stroke-width:0.545005"
       d="M 109.94554,92.439904 132.36288,82.042767 88.93927,38.810176 83.319562,85.969193 Z" />
    <path
       id="path42"
       style="display:inline;fill:#000000;stroke-width:0.545005"
       d="m 105.04857,91.811602 -26.625985,-6.470671 -0.512369,4.305673 8.020701,11.032876 z" />
    <path
       id="path41"
       style="display:inline;fill:#000000;stroke-width:0.545005"
       d="M 152.86105,104.79877 131.80458,83.835392 109.38723,94.232501 Z" />
    <path
       id="path40"
       style="display:inline;fill:#000000;stroke-width:0.545005"
       d="M 271.89148,122.8647 228.17583,36.876065 137.74306,78.819386 158.79953,99.782758 269.22406,126.61972 Z" />
    <path
       id="path38"
       style="display:inline;fill:#000000;stroke-width:0.545005"
       d="M 317.44613,60.129542 287.09317,6.6933552 232.67098,31.935864 276.38664,117.92447 Z" />
    <path
       id="path37"
       style="display:inline;fill:#000000;stroke-width:0.545005"
       d="m 349.2789,-13.256047 0.0974,34.726278 24.67076,-34.726278 z" />
    <path
       id="path36"
       style="display:inline;fill:#000000;stroke-width:0.545005"
       d="m 329.86133,-12.997455 -39.70787,18.41689 30.35297,53.436187 26.37694,-37.1268 -0.0973,-34.726277 z" />
    <path
       id="path35"
       style="display:inline;fill:#000000;stroke-width:0.545005"
       d="m 274.16831,-13.050818 10.46061,18.416891 39.70785,-18.416891 z" />
    <path
       id="path34"
       style="display:inline;fill:#000000;stroke-width:0.545005"
       d="M 208.07671,-11.214074 230.27269,32.445325 284.69489,7.2028159 274.23428,-11.214074 Z" />
    <path
       id="path33"
       style="display:inline;fill:#000000;stroke-width:0.545005"
       d="M 96.271316,-7.7192781 91.22239,34.65085 134.646,77.883441 225.07877,35.94012 202.88279,-7.7192781 Z" />
    <path
       id="path32"
       style="display:inline;fill:#000000;stroke-width:0.545005"
       d="M 43.625924,-2.7319229 86.184646,39.638206 91.233572,-2.7319229 Z" />
    <path
       id="path31"
       style="display:inline;fill:#000000;stroke-width:0.545005"
       d="M 8.5495904,-2.4408081 72.857509,86.01246 77.283371,87.088335 82.903092,39.929321 40.34437,-2.4408081 Z" />
    <path
       id="path30"
       style="display:inline;fill:#000000;stroke-width:0.545005"
       d="M -15.492923,63.648859 70.004675,84.42757 5.6967565,-4.0256974 H -15.492923 Z" />
    <path
       id="path29"
       style="display:inline;fill:#000000;stroke-width:0.545005"
       d="m -17.202669,142.87482 3.805896,3.96732 83.744274,-38.84066 1.860934,-15.616097 -3.913507,-5.381573 -85.497597,-20.778711 z" />
    <path
       id="path28"
       style="display:inline;fill:#000000;stroke-width:0.545005"
       d="m -9.229734,151.78988 3.8059098,-1.76474 -3.8059098,-3.96733 z" />
    <path
       id="path27"
       style="display:inline;fill:#000000;stroke-width:0.545005"
       d="m -9.5785344,180.70505 39.6556154,6.68188 -35.8497187,-37.37227 -3.8058967,1.76474 z" />
    <path
       id="path26"
       style="display:inline;fill:#000000;stroke-width:0.545005"
       d="m 57.390946,220.09778 -29.585427,-30.84077 -39.655615,-6.68189 v 63.42417 z" />
    <path
       id="path25"
       style="display:inline;fill:#000000;stroke-width:0.545005"
       d="m 52.027658,222.78388 -69.241041,25.9015 v 44.30183 h 66.429146 l 7.751163,-65.054 z" />
    <path
       id="path24"
       style="display:inline;fill:#000000;stroke-width:0.545005"
       d="m 65.339539,217.96073 2.652057,-22.25594 -38.048805,-6.41098 29.585414,30.84077 z" />
    <path
       id="path23"
       style="display:inline;fill:#000000;stroke-width:0.545005"
       d="m 65.671363,220.58633 -5.811334,2.17386 4.939268,5.14935 z" />
    <path
       id="path22"
       style="display:inline;fill:#000000;stroke-width:0.545005"
       d="M 108.71379,201.91983 69.521375,195.31645 66.869332,217.5724 Z" />
    <path
       id="path21"
       style="display:inline;fill:#000000;stroke-width:0.545005"
       d="m 110.54933,206.53989 -41.844457,15.65257 -0.872066,7.32319 62.405993,65.054 h 24.94847 l 33.65675,-47.37572 -22.75243,-31.29522 z" />
    <path
       id="path20"
       style="display:inline;fill:#000000;stroke-width:0.545005"
       d="m 142.98923,183.39076 -57.78233,-79.47703 -9.881622,4.58322 -9.845751,82.62391 39.192403,6.60337 z" />
    <path
       id="path19"
       style="display:inline;fill:#000000;stroke-width:0.545005"
       d="m 145.32065,185.24558 -38.3173,14.33347 55.54224,9.35882 z" />
    <path
       id="path18"
       style="display:inline;fill:#000000;stroke-width:0.545005"
       d="M 206.33595,162.90567 150.86237,107.6771 107.38856,97.110827 88.270923,105.97871 146.05326,185.45575 Z" />
    <path
       id="path17"
       style="display:inline;fill:#000000;stroke-width:0.545005"
       d="m 207.22747,163.38072 -60.2827,22.55008 17.22495,23.69228 40.17617,6.76924 23.25351,-32.73046 z" />
    <path
       id="path16"
       style="display:inline;fill:#000000;stroke-width:0.545005"
       d="m 256.86561,138.64277 7.58106,-10.67131 -110.42453,-26.83697 55.47357,55.22857 z" />
    <path
       id="path15"
       style="display:inline;fill:#000000;stroke-width:0.545005"
       d="m 254.28616,146.06567 -47.3699,17.7203 20.37193,20.28114 z" />
    <path
       id="path14"
       style="display:inline;fill:#000000;stroke-width:0.545005"
       d="m 272.35384,139.49758 -1.97059,-3.87667 -5.2221,-1.26827 -7.58107,10.67131 z" />
    <path
       id="path13"
       style="display:inline;fill:#000000;stroke-width:0.545005"
       d="m 269.39342,143.03414 -14.77377,5.52638 -26.99795,38.00143 44.31,44.11496 45.95576,7.74337 z" />
    <path
       id="path11"
       style="display:inline;fill:#000000;stroke-width:0.545005"
       d="m 276.06662,139.8037 -5.50494,2.05998 48.49404,95.38614 14.97973,2.52435 -0.23979,-85.93995 z" />
    <path
       id="path10"
       style="display:inline;fill:#000000;stroke-width:0.545005"
       d="m 336.70866,115.43354 -24.84189,-43.735744 -41.05949,57.794994 2.55469,5.02329 7.47552,1.81669 z" />
    <path
       id="path9"
       style="display:inline;fill:#000000;stroke-width:0.545005"
       d="m 335.73567,117.54273 -55.87116,20.89923 57.72905,14.03051 -0.0893,-31.81603 z" />
    <path
       id="path8"
       style="display:inline;fill:#000000;stroke-width:0.545005"
       d="m 342.40202,113.73804 -0.2234,-80.204618 -26.37695,37.1268 24.84188,43.735708 z" />
    <path
       id="path6"
       style="display:inline;fill:#000000;stroke-width:0.545005"
       d="M 429.87586,80.877774 407.11317,-2.2381784 H 369.27343 L 344.60266,32.4881 l 0.22341,80.20459 z" />
    <path
       id="path5"
       style="display:inline;fill:#000000;stroke-width:0.545005"
       d="m 423.38223,87.783837 -85.04979,31.815033 0.0105,3.77161 20.95298,36.88686 89.91835,21.85347 z" />
    <path
       id="path4"
       style="display:inline;fill:#000000;stroke-width:0.545005"
       d="m 490.71875,55.018252 6.5594,-61.043547 h -88.32694 l 22.76269,83.115952 z" />
    <path
       id="path3"
       style="display:inline;fill:#000000;stroke-width:0.545005"
       d="m 485.22074,63.045619 -59.00486,22.072404 25.8318,94.326887 20.14034,4.89394 z" />
    <path
       id="path2"
       style="display:inline;fill:#000000;stroke-width:0.545005"
       d="M 525.4777,46.817728 V -2.1480263 h -25.72726 l -6.55939,61.0435483 z" />
    <path
       id="path1"
       style="display:inline;fill:#000000;stroke-width:0.545005"
       d="m 519.16454,52.439137 -32.28665,12.077792 -13.03271,121.293141 45.31936,11.0141 z" />
  </g>
</svg>
